# xmcd CD database file
#
# Track frame offsets:
#	150
#	13537
#	26270
#	39447
#	50022
#	62855
#	75952
#	88612
#	103570
#	114867
#	128315
#	143025
#	156375
#	169605
#	183160
#
# Disc length: 2624 seconds
#
# Revision: 2
# Processed by: cddbd v1.5.1PL2 Copyright (c) Steve Scherf et al.
# Submitted via: CDex 1.60beta1-cs1
#
DISCID=a90a3e0f
DTITLE=Chu Berry And HIS STOMPY STEVEDORES - Chu
DYEAR=1936
DGENRE=Jazz
TTITLE0=Now You're Talking My Language
TTITLE1=Indiana (Back Home Again In Indiana)
TTITLE2=Limehouse Blues
TTITLE3=Chuberry Jam
TTITLE4=Maelstrom
TTITLE5=My Secret Love Affair
TTITLE6=Ebb Tide
TTITLE7=Warmin' Up
TTITLE8=At the Clambake Carnival
TTITLE9=Jive (Page "1" Of The Hepster's Dictionary)
TTITLE10=Topsy Turvy (Hard Times)
TTITLE11=Come On With The "Come On"
TTITLE12=(I Don't Stand) A Ghost Of A Chance (With You)
TTITLE13=Lonesome Nights
TTITLE14=Take The "A" Train
EXTD=YEAR: 1936
EXTT0=
EXTT1=
EXTT2=
EXTT3=
EXTT4=
EXTT5=
EXTT6=
EXTT7=
EXTT8=
EXTT9=
EXTT10=
EXTT11=
EXTT12=
EXTT13=
EXTT14=
PLAYORDER=
